<svg xmlns="http://www.w3.org/2000/svg" viewBox="0 0 812.61 191.72"><defs><style>.cls-1{fill:#000;}.cls-2{fill:#ed1c24;}</style></defs><g id="Layer_2" data-name="Layer 2"><g id="Layer_1-2" data-name="Layer 1"><path class="cls-1" d="M283.53,164.88A10.2,10.2,0,0,1,287,171.6h-3.91a6.78,6.78,0,0,0-2.63-4.2,8.73,8.73,0,0,0-5.39-1.58,11.38,11.38,0,0,0-5.48,1.36,12.41,12.41,0,0,0-4.32,3.89,15.91,15.91,0,0,0-2.63,8.64,8.38,8.38,0,0,0,2.39,6.35,8.86,8.86,0,0,0,6.41,2.28,11.62,11.62,0,0,0,5.05-1.14,12,12,0,0,0,4.18-3.32,13.85,13.85,0,0,0,2.58-5.11H272l.49-2.77h14.46l-.61,3.42a17.06,17.06,0,0,1-3.2,6.33,15.6,15.6,0,0,1-5.46,4.32,16,16,0,0,1-7.11,1.57,12.85,12.85,0,0,1-6.27-1.45,10,10,0,0,1-4.07-4.07,12.57,12.57,0,0,1-1.43-6.09,17.66,17.66,0,0,1,.29-3.18,18,18,0,0,1,3.09-7.51,16.79,16.79,0,0,1,5.87-5.13,16,16,0,0,1,7.62-1.86A11.73,11.73,0,0,1,283.53,164.88Z"/><path class="cls-1" d="M298.84,161.21l-5.29,30.15H289.8l5.3-30.15Z"/><path class="cls-1" d="M318.35,169.81a8,8,0,0,1,3.36,3.16,9.45,9.45,0,0,1,1.21,4.9,14.86,14.86,0,0,1-.25,2.61,13.9,13.9,0,0,1-2.5,6,12.81,12.81,0,0,1-4.67,3.87,13.5,13.5,0,0,1-5.94,1.34,9.84,9.84,0,0,1-7-2.44,8.74,8.74,0,0,1-2.63-6.72,15.07,15.07,0,0,1,2.77-8.54,12.9,12.9,0,0,1,4.71-3.89,13.65,13.65,0,0,1,6-1.34A10.7,10.7,0,0,1,318.35,169.81Zm-9.3,3.05a8.74,8.74,0,0,0-3.22,2.75,10.81,10.81,0,0,0-1.85,4.58,12.55,12.55,0,0,0-.21,2,5.84,5.84,0,0,0,1.75,4.58,6.45,6.45,0,0,0,4.48,1.57,8.71,8.71,0,0,0,3.83-.89,8.85,8.85,0,0,0,3.2-2.75,10.74,10.74,0,0,0,1.85-4.55,12.34,12.34,0,0,0,.21-2,5.89,5.89,0,0,0-1.75-4.62A6.39,6.39,0,0,0,312.9,172,8.82,8.82,0,0,0,309.05,172.86Z"/><path class="cls-1" d="M325.07,191.36l5.34-30.15h3.71l-2.41,13.49a10.67,10.67,0,0,1,9.74-6,8.28,8.28,0,0,1,6.17,2.32,8.71,8.71,0,0,1,2.3,6.4,17.08,17.08,0,0,1-.24,2.76,15.14,15.14,0,0,1-2.39,6.09,12.31,12.31,0,0,1-4.35,4,11.66,11.66,0,0,1-5.56,1.38,7.9,7.9,0,0,1-5.2-1.63,6.72,6.72,0,0,1-2.38-4.36l-1,5.71Zm17.74-5.16a9.87,9.87,0,0,0,3.12-6,11.38,11.38,0,0,0,.16-2,6,6,0,0,0-1.67-4.56,6.27,6.27,0,0,0-4.6-1.63,8.67,8.67,0,0,0-4.11,1,8.83,8.83,0,0,0-3.22,2.87,10.93,10.93,0,0,0-1.75,4.31,9.75,9.75,0,0,0-.17,1.84,5.94,5.94,0,0,0,6.32,6.35A8.58,8.58,0,0,0,342.81,186.2Z"/><path class="cls-1" d="M371.43,170.36a6.63,6.63,0,0,1,2.44,4.34l1-5.71h3.67l-3.95,22.37H370.9l1-5.71a10.62,10.62,0,0,1-9.7,6A8.36,8.36,0,0,1,356,189.3a8.83,8.83,0,0,1-2.3-6.46,14.93,14.93,0,0,1,.28-2.93,15.1,15.1,0,0,1,2.37-6,12,12,0,0,1,4.29-3.89,11.66,11.66,0,0,1,5.48-1.34A8.23,8.23,0,0,1,371.43,170.36Zm-10.59,3.83a10,10,0,0,0-3.1,6,12.25,12.25,0,0,0-.2,2,6.07,6.07,0,0,0,1.67,4.56,6.34,6.34,0,0,0,4.64,1.63,8.57,8.57,0,0,0,4.08-1,9.07,9.07,0,0,0,3.21-2.87,10.72,10.72,0,0,0,1.76-4.3,10.56,10.56,0,0,0,.16-1.83,5.92,5.92,0,0,0-6.32-6.35A8.53,8.53,0,0,0,360.84,174.19Z"/><path class="cls-1" d="M389.64,161.21l-5.3,30.15h-3.75l5.3-30.15Z"/><path class="cls-1" d="M417.54,188a8.92,8.92,0,0,1-3.3,2.6,12.4,12.4,0,0,1-9.94-.08,7.65,7.65,0,0,1-3.2-2.89,7.47,7.47,0,0,1-1-4H404a4.86,4.86,0,0,0,.47,2.38,4.54,4.54,0,0,0,1.79,1.91,6,6,0,0,0,3.2.76,5.52,5.52,0,0,0,4.18-1.59,5.41,5.41,0,0,0,1.52-3.91,4,4,0,0,0-.79-2.55,6,6,0,0,0-2-1.59c-.77-.39-1.83-.84-3.19-1.36a29.57,29.57,0,0,1-3.69-1.59,6.8,6.8,0,0,1-2.32-2.06,5.72,5.72,0,0,1-1-3.44,11.8,11.8,0,0,1,.16-1.87A7,7,0,0,1,405.5,164a11.17,11.17,0,0,1,6.46-1.77q4.35,0,6.62,2.1a7.23,7.23,0,0,1,2.38,5.19H417a4.34,4.34,0,0,0-1.31-3,5.16,5.16,0,0,0-3.87-1.3,6,6,0,0,0-4,1.26,4.47,4.47,0,0,0-1.52,3.67,3.66,3.66,0,0,0,.75,2.36A5.44,5.44,0,0,0,409,174q1.13.55,3.12,1.29a30.27,30.27,0,0,1,3.75,1.61,7,7,0,0,1,2.42,2.13,6,6,0,0,1,1,3.59,11,11,0,0,1-.21,2A7.62,7.62,0,0,1,417.54,188Z"/><path class="cls-1" d="M442.26,169.81a8,8,0,0,1,3.36,3.16,9.54,9.54,0,0,1,1.2,4.9,14.82,14.82,0,0,1-.24,2.61,13.79,13.79,0,0,1-2.51,6,12.7,12.7,0,0,1-4.66,3.87,13.54,13.54,0,0,1-6,1.34,9.83,9.83,0,0,1-7-2.44,8.74,8.74,0,0,1-2.63-6.72,14.64,14.64,0,0,1,.24-2.57,13.83,13.83,0,0,1,2.53-6,12.86,12.86,0,0,1,4.7-3.89,13.66,13.66,0,0,1,6-1.34A10.7,10.7,0,0,1,442.26,169.81ZM433,172.86a8.79,8.79,0,0,0-3.21,2.75,11,11,0,0,0-1.86,4.58,13.59,13.59,0,0,0-.2,2,5.81,5.81,0,0,0,1.75,4.58,6.45,6.45,0,0,0,4.48,1.57,8.71,8.71,0,0,0,3.83-.89,8.85,8.85,0,0,0,3.2-2.75,10.74,10.74,0,0,0,1.85-4.55,12.34,12.34,0,0,0,.21-2,5.86,5.86,0,0,0-1.76-4.62A6.36,6.36,0,0,0,436.8,172,8.86,8.86,0,0,0,433,172.86Z"/><path class="cls-1" d="M458.56,161.21l-5.3,30.15h-3.75l5.3-30.15Z"/><path class="cls-1" d="M482.75,169l-3.95,22.37h-3.75l.9-5.18a9.39,9.39,0,0,1-3.75,4.12,10.35,10.35,0,0,1-5.3,1.42,7.24,7.24,0,0,1-5.23-1.85,7.08,7.08,0,0,1-1.93-5.36,13.32,13.32,0,0,1,.2-2.48l2.32-13H466l-2.24,12.67a9.67,9.67,0,0,0-.16,1.83A5,5,0,0,0,465,187.3a5.4,5.4,0,0,0,3.91,1.33,7.49,7.49,0,0,0,5-1.77,9.43,9.43,0,0,0,2.91-5.2L479,169Z"/><path class="cls-1" d="M490.24,184.35a9.2,9.2,0,0,0-.12,1.38,2.14,2.14,0,0,0,.72,1.84,4,4,0,0,0,2.34.53h2.28l-.61,3.26h-2.77a6.85,6.85,0,0,1-4.3-1.14,4.51,4.51,0,0,1-1.45-3.75,10.88,10.88,0,0,1,.21-2.2l2.16-12.06h-3.34l.53-3.22h3.38l1-5.58H494L493,169h5.79l-.57,3.22H492.4Z"/><path class="cls-1" d="M507.47,169l-4,22.37h-3.7L503.77,169Zm-2.4-8.06a3,3,0,0,1,2.12-.78,2.3,2.3,0,0,1,1.59.51,1.7,1.7,0,0,1,.57,1.33,2.5,2.5,0,0,1-.86,1.95,3,3,0,0,1-2.12.78,2.26,2.26,0,0,1-1.58-.51,1.67,1.67,0,0,1-.58-1.33A2.52,2.52,0,0,1,505.07,160.93Z"/><path class="cls-1" d="M528.53,169.81a8,8,0,0,1,3.36,3.16,9.54,9.54,0,0,1,1.2,4.9,14.82,14.82,0,0,1-.24,2.61,13.79,13.79,0,0,1-2.51,6,12.7,12.7,0,0,1-4.66,3.87,13.54,13.54,0,0,1-5.95,1.34,9.83,9.83,0,0,1-7-2.44,8.74,8.74,0,0,1-2.63-6.72,14.64,14.64,0,0,1,.24-2.57,13.83,13.83,0,0,1,2.53-6,12.81,12.81,0,0,1,4.71-3.89,13.58,13.58,0,0,1,6-1.34A10.7,10.7,0,0,1,528.53,169.81Zm-9.31,3.05a8.79,8.79,0,0,0-3.21,2.75,11,11,0,0,0-1.86,4.58,13.59,13.59,0,0,0-.2,2,5.81,5.81,0,0,0,1.75,4.58,6.45,6.45,0,0,0,4.48,1.57,8.71,8.71,0,0,0,3.83-.89,8.85,8.85,0,0,0,3.2-2.75,10.74,10.74,0,0,0,1.85-4.55,12.34,12.34,0,0,0,.21-2,5.86,5.86,0,0,0-1.76-4.62,6.36,6.36,0,0,0-4.44-1.57A8.86,8.86,0,0,0,519.22,172.86Z"/><path class="cls-1" d="M556.74,170.48a7.15,7.15,0,0,1,1.94,5.4,13.73,13.73,0,0,1-.21,2.48l-2.32,13h-3.71l2.24-12.67a9.67,9.67,0,0,0,.17-1.84,5,5,0,0,0-1.39-3.78,5.48,5.48,0,0,0-3.91-1.31,7.43,7.43,0,0,0-5.21,2,9.77,9.77,0,0,0-2.81,5.76v-.16l-2.12,12h-3.75l4-22.37h3.75l-.94,5.26a9.75,9.75,0,0,1,3.79-4.18,10.24,10.24,0,0,1,5.3-1.44A7.22,7.22,0,0,1,556.74,170.48Z"/><path class="cls-1" d="M578.14,170.68a6.92,6.92,0,0,1,2.25,5.32h-3.67a4.06,4.06,0,0,0-1.28-3.3,5.73,5.73,0,0,0-4-1.26,5.07,5.07,0,0,0-3.28,1,3.21,3.21,0,0,0-1.24,2.62,2.29,2.29,0,0,0,.69,1.73,5.53,5.53,0,0,0,1.71,1.1,24.72,24.72,0,0,0,2.77.92,27.55,27.55,0,0,1,3.65,1.22,6.38,6.38,0,0,1,2.38,1.79,4.66,4.66,0,0,1,1,3.1,11.13,11.13,0,0,1-.16,1.51,5.8,5.8,0,0,1-2.55,3.76,9.42,9.42,0,0,1-5.48,1.45,10.59,10.59,0,0,1-6.7-1.93,6.29,6.29,0,0,1-2.42-5.32h3.67a3.65,3.65,0,0,0,1.36,3.3,6.85,6.85,0,0,0,4.46,1.26,4.6,4.6,0,0,0,3.18-1,3.31,3.31,0,0,0,1.14-2.6,2.83,2.83,0,0,0-.73-2,5,5,0,0,0-1.8-1.2,29.75,29.75,0,0,0-2.93-1,33.07,33.07,0,0,1-3.44-1.16,5.62,5.62,0,0,1-2.24-1.65,4.35,4.35,0,0,1-.92-2.89,8.49,8.49,0,0,1,.12-1.38,5.79,5.79,0,0,1,2.55-3.9,9.54,9.54,0,0,1,5.56-1.48Q575.95,168.71,578.14,170.68Z"/><path class="cls-1" d="M45.94,107.53,72.56,46.11h41.06L63.51,144.25H15.31L0,46.11H41.06Z"/><path class="cls-1" d="M199.75,55.25q11.49,10.35,11.49,28.27a60.11,60.11,0,0,1-1.05,10.79,47.39,47.39,0,0,1-2.26,7.65h-61.6a27.79,27.79,0,0,0-.17,3.49c0,3.48.72,5.88,2.18,7.22a8.79,8.79,0,0,0,6.17,2,11.41,11.41,0,0,0,10.1-5.74H205.5a55.58,55.58,0,0,1-20.62,26.36Q170.35,145.46,151,145.47t-30.62-10.7Q109.1,124.06,109.1,105.1a72.91,72.91,0,0,1,1-11.84,58.71,58.71,0,0,1,11-25.75,55.43,55.43,0,0,1,20.71-16.79,62.51,62.51,0,0,1,27-5.83Q188.27,44.89,199.75,55.25ZM172.61,83.52q0-4.17-2.61-6.26a10.22,10.22,0,0,0-6.61-2.09q-10.44,0-14.1,11h23.15A15.08,15.08,0,0,0,172.61,83.52Z"/><path class="cls-1" d="M275.1,15.49,252.47,144.25H213.85L236.47,15.49Z"/><path class="cls-1" d="M355.83,49.94a37.05,37.05,0,0,1,15.92,14.61q5.65,9.58,5.66,22.62a67.77,67.77,0,0,1-1.05,11.49,55.1,55.1,0,0,1-32,41.15,64.84,64.84,0,0,1-27,5.66q-13.58,0-23.93-5.14a38,38,0,0,1-16.1-14.7q-5.73-9.57-5.74-22.62a64.78,64.78,0,0,1,1.05-11.31,54.76,54.76,0,0,1,11.13-24.88A56,56,0,0,1,305,50.55a66.43,66.43,0,0,1,27.32-5.66A52.67,52.67,0,0,1,355.83,49.94ZM317.72,82.56q-4.35,4.27-5.91,12.62a27.46,27.46,0,0,0-.52,5c0,4,.92,6.91,2.78,8.88a9.78,9.78,0,0,0,7.48,3,13.63,13.63,0,0,0,9.75-4.26q4.33-4.27,5.91-12.62a25.55,25.55,0,0,0,.52-5.05c0-3.94-1-6.9-2.87-8.87a9.85,9.85,0,0,0-7.39-3A13.62,13.62,0,0,0,317.72,82.56Z"/><path class="cls-1" d="M422.82,112.23h40.89l-5.74,32H374.79l5.4-30.28,43.67-35.84H387l5.75-32h80.91l-5.4,30.28Z"/><path class="cls-1" d="M526,46.11l-17.23,98.14H470.15l17.22-98.14ZM492.33,11.22a24,24,0,0,1,9.4-8.17A29,29,0,0,1,515,0Q523.91,0,529,4.44a14.5,14.5,0,0,1,5,11.39,20.34,20.34,0,0,1-3.3,11.23,23.54,23.54,0,0,1-9.22,8.18,28.51,28.51,0,0,1-13.23,3q-9,0-14.18-4.44a14.36,14.36,0,0,1-5.13-11.39A20,20,0,0,1,492.33,11.22Z"/><path class="cls-1" d="M575.42,104.75a7,7,0,0,0-.18,1.74q0,4.88,6.27,4.87h9.22l-5.92,32.89H570.2q-34.29,0-34.28-29.06a64.9,64.9,0,0,1,1-11.14l4.53-25.75H529.31l5.74-32.19h12.18l4.17-23.66H590l-4.17,23.66h16L596.12,78.3h-16Z"/><path class="cls-1" d="M648.84,46.11l9.57,49.76,26.1-49.76h42.63L638.58,191.23H596.29l33.94-51.85L605.86,46.11Z"/><path class="cls-2" d="M769.72,46.09,697.11,164.52q-4.15,6.67-8.16,12V115.77L730.8,46.09Z"/><path class="cls-2" d="M812.61,46.09,740,164.52q-4.17,6.67-8.16,12V115.77l41.84-69.68Z"/></g></g></svg>